<svg xmlns="http://www.w3.org/2000/svg" viewBox="205 154 1186 499" role="img" aria-label="yolt"><title>yolt</title><path fill="#4a6600" fill-rule="evenodd" d="M836.0 158.0 679.5 158.0 678.2 159.0 673.5 160.0 662.2 167.0 649.0 180.2 647.8 182.5 645.2 184.0 643.8 186.5 641.2 188.0 638.8 191.5 634.0 195.2 632.0 198.5 628.2 201.0 625.0 204.2 624.0 206.2 617.0 212.5 616.0 214.5 610.5 220.0 608.2 221.2 607.0 223.5 557.8 272.5 553.0 279.5 553.0 281.2 552.0 282.5 552.0 285.2 551.0 286.5 551.2 486.5 553.2 486.8 556.8 483.5 564.8 473.2 570.8 467.5 572.8 464.2 577.8 459.5 585.8 449.2 590.8 444.5 592.8 441.2 597.8 436.5 599.8 433.2 604.8 428.5 606.8 425.2 618.8 412.5 626.8 402.2 632.8 396.5 640.8 386.2 646.8 380.5 653.8 371.2 658.8 366.5 660.8 363.2 671.8 351.5 679.8 341.2 684.8 336.5 686.8 333.2 698.8 320.5 705.8 311.2 710.8 306.5 712.0 304.2 713.5 303.5 719.8 295.2 730.8 283.5 732.8 280.2 745.8 266.5 747.8 263.2 758.8 251.5 760.8 248.2 766.8 242.5 768.8 239.2 772.8 235.5 774.8 232.2 778.8 228.5 780.8 225.2 784.8 221.5 792.8 211.2 797.8 206.5 799.8 203.2 804.8 198.5 811.8 189.2 815.8 185.5 817.8 182.2 821.8 178.5 823.8 175.2 833.8 164.5 836.2 160.8Z M209.8 158.0 209.5 158.8 211.0 161.2 223.0 176.5 233.0 191.2 275.0 247.2 279.0 251.5 281.0 255.2 285.0 259.5 294.0 272.2 297.0 275.2 304.0 285.2 315.0 298.5 324.0 311.2 343.0 334.5 349.0 343.2 353.0 347.2 361.0 358.2 368.5 366.8 373.5 369.8 376.2 369.8 377.5 370.8 382.2 370.8 383.5 369.8 387.2 369.8 391.5 367.8 394.2 367.8 398.5 365.8 402.2 365.8 406.5 363.8 409.2 363.8 410.5 362.8 413.2 362.8 414.5 361.8 417.2 361.8 418.5 360.8 425.2 359.8 429.5 357.8 433.2 357.8 434.5 356.8 441.2 355.8 445.5 353.8 448.2 353.8 449.5 352.8 452.2 352.8 453.5 351.8 456.2 351.8 457.5 350.8 460.2 350.8 461.5 349.8 463.0 349.8 464.0 350.8 456.5 359.0 453.8 360.5 453.0 363.0 450.5 363.8 448.2 367.0 446.5 367.8 426.5 388.0 424.2 389.2 422.2 392.0 420.2 393.0 404.0 409.2 398.0 419.5 398.0 422.2 397.0 423.5 397.0 425.2 396.0 426.5 396.0 428.2 395.0 429.5 395.0 431.2 394.0 432.5 394.0 434.2 393.0 435.5 393.0 437.2 392.0 438.5 392.0 440.2 389.0 447.5 389.0 450.2 388.0 451.5 388.0 453.2 387.0 454.5 387.0 456.2 386.0 457.5 386.0 459.2 383.0 466.5 383.0 469.2 381.0 472.5 381.0 474.2 380.0 475.5 380.0 478.2 379.0 479.5 379.0 481.2 378.0 482.5 378.0 484.2 377.0 485.5 377.0 487.2 376.0 488.5 376.0 490.2 375.0 491.5 375.0 493.2 372.0 500.5 372.0 504.2 370.0 506.5 370.0 509.2 369.0 510.5 369.0 512.2 368.0 513.5 368.0 515.2 367.0 516.5 367.0 518.2 366.0 519.5 366.0 521.2 365.0 522.5 365.0 524.2 364.0 525.5 364.0 527.2 361.0 534.5 361.0 537.2 360.0 538.5 360.0 540.2 359.0 541.5 359.0 543.2 358.0 544.5 358.0 546.2 357.0 547.5 357.0 549.2 356.0 550.5 356.0 552.2 355.0 553.5 355.0 555.2 354.0 556.5 354.0 558.2 353.0 559.5 353.0 561.2 352.0 562.5 352.0 564.2 351.0 565.5 351.0 567.2 348.0 574.5 348.0 577.2 347.0 578.5 347.0 580.2 345.0 583.5 345.0 585.2 343.0 589.5 343.0 592.2 342.0 593.5 342.0 595.2 341.0 596.5 341.0 598.2 340.0 599.5 340.0 601.2 337.0 608.5 337.0 611.2 336.0 612.5 336.0 614.2 335.0 615.5 335.0 617.2 334.0 618.5 334.0 620.2 333.0 621.5 333.0 623.2 332.0 624.5 332.0 626.2 331.0 627.5 331.0 629.2 330.0 630.5 330.0 632.2 327.0 639.5 327.0 642.2 325.2 646.2 326.8 648.8 408.2 648.8 409.5 647.8 411.2 647.8 420.2 642.8 426.8 636.5 434.8 626.2 448.8 611.5 450.8 608.2 455.8 603.5 457.8 600.2 462.8 595.5 463.8 593.5 469.8 587.5 471.8 584.2 478.8 577.5 480.8 574.2 486.8 568.5 488.8 565.2 494.8 559.5 496.8 556.2 503.8 549.5 504.8 547.5 510.8 541.5 512.8 538.2 518.8 532.5 521.8 527.2 521.8 525.5 523.8 521.2 523.8 285.5 522.8 284.2 522.8 281.5 518.8 274.2 497.8 253.5 496.8 251.5 492.8 248.2 491.8 246.2 410.5 165.0 402.2 160.0 400.5 160.0 396.2 158.0Z"/><path fill="#121212" fill-rule="evenodd" d="M976.5 312.0 974.5 311.0 965.2 303.0 955.2 298.0 953.5 298.0 946.2 295.0 941.5 295.0 940.2 294.0 856.5 294.0 855.2 295.0 775.5 295.0 774.2 296.0 763.5 296.0 762.2 297.0 758.5 297.0 757.2 298.0 752.5 299.0 744.5 303.0 735.2 310.0 728.0 319.5 717.0 331.2 710.0 340.5 705.0 345.2 698.0 354.5 693.0 359.2 687.0 367.5 683.0 371.2 677.0 379.5 672.0 384.5 666.0 395.5 666.0 397.2 664.0 400.5 664.0 402.2 663.0 403.5 663.0 406.2 662.0 407.5 662.0 411.2 661.0 412.5 661.0 416.2 660.0 417.5 660.0 438.2 659.0 439.5 659.0 495.2 658.0 496.5 658.0 529.2 659.0 530.5 659.0 536.2 660.0 537.5 660.0 541.2 661.0 542.5 661.0 545.2 662.0 546.5 664.0 554.2 672.0 569.2 679.0 578.5 689.5 587.8 698.5 593.8 704.5 596.8 706.2 596.8 710.5 598.8 713.2 598.8 714.5 599.8 718.2 599.8 719.5 600.8 941.2 600.8 942.5 599.8 951.2 598.8 952.5 597.8 957.2 596.8 967.2 591.8 973.2 587.8 979.2 581.8 981.5 580.5 982.8 578.2 986.8 574.5 990.8 569.2 997.8 557.2 997.8 555.5 999.8 552.2 999.8 550.5 1002.8 543.2 1002.8 539.5 1003.8 538.2 1003.8 533.5 1004.8 532.2 1004.8 524.5 1005.8 523.2 1005.8 378.5 1004.8 377.2 1004.8 371.5 1003.8 370.2 1003.8 365.5 1002.8 364.2 1001.8 357.5 1000.8 356.2 998.8 348.5 996.8 345.2 996.8 343.5 989.8 329.5 982.8 319.5 978.8 315.5Z M755.8 394.5 764.5 385.8 772.5 381.8 775.2 381.8 776.5 380.8 863.2 380.8 864.5 381.8 893.2 381.8 894.5 382.8 897.2 382.8 903.2 385.8 907.0 389.2 910.0 393.5 910.0 395.2 912.0 399.5 912.0 405.2 913.0 406.5 913.0 485.2 912.0 486.5 912.0 491.2 908.0 500.2 900.2 508.0 894.2 511.0 892.5 511.0 891.2 512.0 880.5 512.0 879.2 513.0 870.5 513.0 869.2 512.0 864.5 512.0 863.2 513.0 780.5 513.0 779.2 512.0 776.5 512.0 775.2 513.0 772.5 513.0 771.2 512.0 766.5 512.0 759.5 509.0 754.8 504.2 750.8 495.2 750.8 406.5 751.8 405.2 751.8 402.5 753.8 399.2 753.8 397.5Z M1047.5 185.0 1043.5 187.0 1040.0 190.2 1037.0 196.5 1037.0 343.2 1038.0 344.5 1038.0 593.2 1040.0 596.5 1043.5 598.8 1121.2 598.8 1124.8 596.5 1126.8 592.2 1126.8 193.5 1124.8 189.2 1119.2 185.0Z M1160.2 186.2 1157.0 191.5 1157.0 193.2 1156.0 194.5 1156.0 263.2 1155.0 264.5 1155.0 343.2 1154.0 344.5 1154.0 474.2 1155.0 475.5 1155.0 524.2 1156.0 525.5 1156.0 530.2 1157.0 531.5 1157.0 534.2 1158.0 535.5 1158.0 538.2 1159.0 539.5 1160.0 544.2 1168.0 561.2 1176.0 572.5 1187.2 583.8 1192.5 587.8 1205.5 594.8 1207.2 594.8 1214.5 597.8 1217.2 597.8 1218.5 598.8 1381.2 598.8 1384.8 595.2 1385.8 593.2 1385.8 591.5 1386.8 590.2 1386.8 515.5 1383.5 509.0 1380.2 507.0 1266.5 507.0 1265.2 506.0 1260.5 505.0 1254.8 500.5 1250.8 494.2 1250.8 491.5 1249.8 490.2 1249.8 486.5 1248.8 485.2 1248.8 387.5 1249.8 386.2 1249.8 383.5 1252.5 380.8 1254.2 380.8 1255.5 379.8 1367.2 379.8 1371.8 375.2 1371.8 373.5 1372.8 372.2 1372.8 305.5 1370.8 301.5 1366.2 298.0 1253.5 298.0 1252.2 297.0 1250.2 296.8 1249.8 293.5 1248.8 292.2 1248.8 190.5 1245.5 185.2 1242.2 183.0 1240.5 183.0 1239.2 182.0 1228.5 182.0 1227.2 181.0 1176.5 181.0 1175.2 182.0 1167.5 182.0Z"/></svg>
