<svg xmlns="http://www.w3.org/2000/svg" viewBox="7 7 1264 1264" role="img" aria-label="yolt"><title>yolt</title><rect x="7" y="7" width="1264" height="1264" rx="278" fill="#121212"/><path fill="#d6f715" fill-rule="evenodd" d="M1058.2 376.2 870.5 376.0 868.5 377.0 867.2 376.0 861.5 376.0 860.2 377.0 857.5 377.0 855.5 376.0 854.2 377.0 847.5 377.0 846.2 378.0 842.5 378.0 834.2 382.0 832.5 382.0 824.5 387.0 820.5 391.0 814.5 395.0 810.5 399.0 792.2 413.0 788.5 417.0 782.5 421.0 778.5 425.0 765.2 435.0 762.5 438.0 758.5 440.0 754.5 444.0 752.2 445.2 751.5 446.8 738.5 456.0 728.5 465.0 720.2 471.0 716.5 475.0 688.2 497.0 684.0 501.2 682.8 503.5 680.0 505.5 677.0 512.5 677.0 672.2 676.0 673.5 676.0 687.2 677.0 688.5 677.0 703.2 676.0 704.5 676.0 711.2 677.0 712.5 677.0 726.2 680.2 728.5 681.2 728.0 705.2 704.8 708.5 702.8 717.2 693.8 720.5 691.8 728.2 683.8 731.5 681.8 742.2 670.8 745.5 668.8 763.2 651.8 766.5 649.8 773.0 643.2 775.2 640.0 777.2 639.8 779.2 637.0 787.5 630.8 811.2 607.8 813.5 606.5 814.0 605.2 816.5 603.8 823.2 596.8 826.5 594.8 837.2 583.8 840.5 581.8 852.2 569.8 855.5 567.8 866.2 556.8 869.5 554.8 875.2 548.8 878.5 546.8 890.2 534.8 893.5 532.8 905.2 520.8 908.5 518.8 914.2 512.8 917.0 511.2 917.8 508.8 919.5 508.5 920.2 507.0 925.5 503.5 926.0 502.2 928.5 500.8 937.2 491.8 940.5 489.8 946.2 483.8 949.5 481.8 960.2 470.8 963.5 468.8 972.2 459.8 975.5 457.8 1001.2 432.8 1004.0 431.2 1005.5 428.8 1007.2 428.0 1015.2 419.8 1018.5 417.8 1031.2 404.8 1034.5 402.8 1046.2 390.8 1049.5 388.8 1058.2 380.0 1058.8 379.0 1057.2 377.8Z M219.8 376.0 218.8 377.2 219.8 379.2 231.0 390.2 233.0 393.5 242.0 402.2 244.0 405.5 251.0 412.2 252.0 414.2 256.0 417.5 261.0 424.5 267.2 430.8 271.0 433.5 272.0 435.5 289.0 453.2 290.0 455.2 294.8 459.2 296.0 461.5 305.0 470.2 306.2 472.5 311.0 476.2 313.0 479.5 327.0 493.2 329.0 496.5 338.5 506.0 341.0 507.5 341.8 509.2 351.0 518.2 353.0 521.5 382.2 550.2 383.8 553.2 387.0 555.2 388.8 558.2 430.5 599.8 434.5 601.8 436.2 601.8 439.5 603.8 454.2 603.8 455.5 602.8 458.2 602.8 459.5 601.8 463.2 601.8 464.5 600.8 469.2 600.8 470.5 599.8 473.2 599.8 474.5 598.8 478.2 598.8 479.5 597.8 482.2 597.8 483.5 596.8 486.2 596.8 487.5 595.8 491.2 595.8 492.5 594.8 495.2 594.8 496.5 593.8 501.2 593.8 502.5 592.8 505.2 592.8 506.5 591.8 511.2 591.8 512.5 590.8 516.2 590.8 517.5 589.8 522.2 589.8 523.5 588.8 532.2 587.8 533.5 586.8 536.2 586.8 537.5 585.8 540.2 585.8 541.5 584.8 546.2 584.8 547.5 583.8 550.2 583.8 551.5 582.8 556.2 582.8 557.5 581.8 559.8 582.2 559.5 583.8 557.2 585.0 549.5 592.0 544.5 595.0 529.2 608.0 520.5 614.0 516.2 618.0 512.2 620.2 511.5 621.8 504.5 626.0 499.2 631.0 479.2 646.0 472.0 655.5 472.0 657.2 469.0 662.5 469.0 664.2 465.0 672.5 463.5 679.5 462.0 680.8 462.0 682.2 460.0 685.5 460.0 687.2 458.0 690.5 457.0 695.2 452.0 704.5 452.0 707.2 450.0 710.5 450.0 712.2 448.0 715.5 448.0 717.2 445.0 722.5 444.0 727.2 441.0 732.5 441.0 734.2 439.0 737.5 439.0 739.2 437.0 742.5 437.0 744.2 432.0 754.5 432.0 756.2 431.0 757.5 431.5 759.5 430.2 760.2 428.0 764.5 428.0 766.2 426.0 768.5 426.0 771.2 424.0 774.5 424.0 776.2 422.0 779.5 422.0 781.2 417.0 791.5 415.0 799.2 410.0 808.5 410.0 810.2 408.0 813.5 408.0 815.2 406.0 818.5 406.0 820.2 404.0 823.5 404.0 825.2 402.0 828.5 402.0 830.2 400.0 832.5 400.0 835.2 397.0 840.5 396.0 845.2 393.0 850.5 392.0 855.2 390.0 858.5 390.0 860.2 388.0 863.5 388.0 865.2 384.0 872.5 384.0 874.2 382.0 877.5 380.0 885.2 377.0 890.5 376.0 895.2 373.2 901.2 374.0 900.0 376.5 902.8 485.2 902.8 486.5 901.8 489.2 901.8 490.5 900.8 492.2 900.8 493.5 899.8 495.2 899.8 503.2 894.8 508.2 889.8 510.2 888.8 513.5 884.8 515.5 883.8 522.2 876.8 525.5 874.8 529.2 870.8 538.5 863.5 538.8 862.5 542.5 859.8 545.5 855.8 553.5 849.8 562.2 840.8 565.5 838.8 583.2 821.8 586.5 819.8 592.2 813.8 595.5 811.8 604.2 802.8 614.5 794.8 623.2 785.8 626.5 783.8 634.8 775.5 637.8 770.2 637.8 768.5 638.8 767.2 638.8 511.5 637.8 510.2 637.8 508.5 632.8 501.2 628.2 498.0 624.5 494.0 601.2 476.0 592.5 468.0 576.2 455.8 575.5 454.2 570.5 451.0 567.5 448.0 554.2 438.0 551.5 435.0 538.2 425.0 535.2 421.8 522.2 412.0 519.5 409.0 517.5 408.0 493.2 388.0 486.2 383.0 477.2 379.0 474.8 380.0 474.0 378.0 472.5 378.0 471.2 377.0 465.5 377.0 464.2 376.0 407.5 376.0 406.2 377.0 403.5 377.0 402.2 376.0 372.5 376.0 371.2 377.0 367.5 377.0 366.2 376.0 341.5 376.0 340.2 377.0 329.5 377.0 328.2 376.0 322.5 376.0 321.2 377.0 296.5 377.0 295.2 376.0 285.5 376.0 284.2 377.0 272.5 377.0 271.2 376.0 267.5 376.0 266.2 377.0 264.5 377.0 263.2 376.0 250.5 376.0 249.2 377.0 244.5 377.0 243.2 376.0 228.5 376.0 227.2 377.0 225.5 377.0 224.2 376.0Z"/></svg>
